USFL
nRows=248
nColumns=2
inDegrees=yes
endheader
time	tib_ant_r	
3.32661	 83.385399	
3.35988	 83.372218	
3.39315	 83.405513	
3.42641	 83.377361	
3.45968	 83.365633	
3.49294	 83.389085	
3.52621	 83.380916	
3.55948	 83.370563	
3.59274	 83.410035	
3.62601	 83.438356	
3.65927	 83.434079	
3.69254	 83.461317	
3.72581	 83.471965	
3.75907	 83.452079	
3.79234	 83.450715	
3.8256	 83.442508	
3.85887	 83.451179	
3.89214	 83.459065	
3.9254	 83.446928	
3.95867	 83.462803	
3.99194	 83.426721	
4.0252	 83.483995	
4.05847	 83.439127	
4.09173	 83.433388	
4.125	 83.396487	
4.15827	 83.430026	
4.19153	 83.424949	
4.2248	 83.355617	
4.25806	 83.370604	
4.29133	 83.340717	
4.3246	 83.322818	
4.35786	 83.321434	
4.39113	 83.387280	
4.4244	 83.370654	
4.45766	 83.390273	
4.49093	 83.328085	
4.52419	 83.353528	
4.55746	 83.321994	
4.59073	 83.296037	
4.62399	 83.253171	
4.65726	 83.249141	
4.69052	 83.307359	
4.72379	 83.313124	
4.75706	 83.360106	
4.79032	 83.297437	
4.82359	 83.340799	
4.85685	 83.284630	
4.89012	 83.267867	
4.92339	 83.303654	
4.95665	 83.139265	
4.98992	 83.005710	
5.02319	 83.367020	
5.05645	 83.299595	
5.08972	 83.560397	
5.12298	 83.428403	
5.15625	 82.984389	
5.18952	 82.464184	
5.22278	 81.502479	
5.25605	 81.225772	
5.28931	 81.465254	
5.32258	 80.926221	
5.35585	 80.675737	
5.38911	 80.680270	
5.42238	 80.372456	
5.45565	 80.286874	
5.48891	 80.167326	
5.52218	 79.917020	
5.55544	 78.810231	
5.58871	 78.420575	
5.62198	 78.023065	
5.65524	 77.703907	
5.68851	 77.427743	
5.72177	 77.289294	
5.75504	 77.201144	
5.78831	 77.138667	
5.82157	 76.946751	
5.85484	 76.933250	
5.8881	 76.893519	
5.92137	 76.669896	
5.95464	 76.533940	
5.9879	 76.469573	
6.02117	 76.411650	
6.05444	 76.566549	
6.0877	 76.541311	
6.12097	 76.496855	
6.15423	 76.384918	
6.1875	 76.396497	
6.22077	 76.354740	
6.25403	 76.447796	
6.2873	 76.483229	
6.32056	 76.526274	
6.35383	 76.447422	
6.3871	 76.372507	
6.42036	 76.418481	
6.45363	 76.514301	
6.4869	 76.396140	
6.52016	 76.376723	
6.55343	 76.481662	
6.58669	 76.353305	
6.61996	 76.339979	
6.65323	 76.245335	
6.68649	 76.323664	
6.71976	 76.385720	
6.75302	 76.457480	
6.78629	 76.376537	
6.81956	 76.339706	
6.85282	 76.369238	
6.88609	 76.285775	
6.91935	 76.045678	
6.95262	 75.911124	
6.98589	 75.893540	
7.01915	 75.815317	
7.05242	 75.988667	
7.08569	 75.982160	
7.11895	 75.981464	
7.15222	 76.001092	
7.18548	 76.059730	
7.21875	 76.114167	
7.25202	 76.218758	
7.28528	 76.333800	
7.31855	 76.471886	
7.35181	 76.370225	
7.38508	 76.398247	
7.41835	 76.410212	
7.45161	 76.335672	
7.48488	 76.283493	
7.51815	 76.281868	
7.55141	 76.292587	
7.58468	 76.206501	
7.61794	 76.172824	
7.65121	 76.154024	
7.68448	 76.147543	
7.71774	 76.187013	
7.75101	 76.238721	
7.78427	 76.240497	
7.81754	 76.274128	
7.85081	 76.217932	
7.88407	 76.327858	
7.91734	 76.386039	
7.9506	 76.399951	
7.98387	 76.375591	
8.01714	 76.379312	
8.0504	 76.362781	
8.08367	 76.380102	
8.11694	 76.375846	
8.1502	 76.398402	
8.18347	 76.469698	
8.21673	 76.464676	
8.25	 76.465457	
8.28327	 76.458334	
8.31653	 76.488072	
8.3498	 76.484950	
8.38306	 76.482456	
8.41633	 76.523016	
8.4496	 76.498169	
8.48286	 76.484547	
8.51613	 76.438464	
8.5494	 76.442896	
8.58266	 76.493484	
8.61593	 76.433178	
8.64919	 76.442493	
8.68246	 76.364262	
8.71573	 76.331820	
8.74899	 76.318481	
8.78226	 76.348057	
8.81552	 76.326148	
8.84879	 76.349655	
8.88206	 76.365111	
8.91532	 76.315288	
8.94859	 76.342285	
8.98185	 76.349665	
9.01512	 76.353928	
9.04839	 76.382358	
9.08165	 76.346911	
9.11492	 76.322634	
9.14819	 76.373994	
9.18145	 76.440480	
9.21472	 76.450841	
9.24798	 76.398353	
9.28125	 76.351899	
9.31452	 76.351750	
9.34778	 76.400360	
9.38105	 76.367566	
9.41431	 76.398512	
9.44758	 76.370035	
9.48085	 76.395683	
9.51411	 76.396626	
9.54738	 76.433695	
9.58065	 76.486077	
9.61391	 76.568081	
9.64718	 76.551785	
9.68044	 76.604016	
9.71371	 76.586347	
9.74698	 76.557939	
9.78024	 76.578632	
9.81351	 76.578701	
9.84677	 76.599811	
9.88004	 76.645887	
9.91331	 76.587550	
9.94657	 76.550996	
9.97984	 76.623011	
10.0131	 76.560110	
10.0464	 76.572821	
10.0796	 76.558443	
10.1129	 76.571390	
10.1462	 76.551010	
10.1794	 76.666169	
10.2127	 76.635284	
10.246	 76.380737	
10.2792	 76.519304	
10.3125	 76.308434	
10.3458	 76.114359	
10.379	 76.681557	
10.4123	 76.308705	
10.4456	 76.478419	
10.4788	 76.416245	
10.5121	 76.168657	
10.5454	 76.142341	
10.5786	 75.659465	
10.6119	 75.286911	
10.6452	 75.292480	
10.6784	 75.060213	
10.7117	 75.171231	
10.745	 74.970863	
10.7782	 75.019484	
10.8115	 75.449808	
10.8448	 76.045463	
10.878	 76.565203	
10.9113	 77.161214	
10.9446	 78.327649	
10.9778	 78.668042	
11.0111	 78.771843	
11.0444	 78.646381	
11.0776	 78.613669	
11.1109	 78.768698	
11.1442	 78.925341	
11.1774	 79.192288	
11.2107	 79.598335	
11.244	 79.994828	
11.2772	 80.171663	
11.3105	 80.674234	
11.3437	 80.952675	
11.377	 81.095670	
11.4103	 81.282344	
11.4435	 81.467597	
11.4768	 81.548206	
11.5101	 81.760077	
11.5433	 81.779580	
